<svg xmlns="http://www.w3.org/2000/svg" width="400" height="420" viewBox="0 0 200 210" role="img" aria-labelledby="title desc"><title id="title">Verdme — Centro común / Trébol contemporáneo</title><desc id="desc">Hojas más anchas y un centro apretado construyen una silueta compacta de tres lóbulos.</desc><path d="M100 92C77 78 68 55 74 30C99 31 119 51 119 73C119 84 111 91 100 92Z" transform="rotate(0 100 100)" fill="#615475"/><path d="M100 92C77 78 68 55 74 30C99 31 119 51 119 73C119 84 111 91 100 92Z" transform="rotate(120 100 100)" fill="#A68DAF"/><path d="M100 92C77 78 68 55 74 30C99 31 119 51 119 73C119 84 111 91 100 92Z" transform="rotate(240 100 100)" fill="#C7AFCC"/></svg>
