<svg xmlns="http://www.w3.org/2000/svg" width="400" height="420" viewBox="0 0 200 210" role="img" aria-labelledby="title desc"><title id="title">Verdme — Origen / Nervadura sutil</title><desc id="desc">Una incisión curva por hoja refuerza el motivo botánico y dirige la mirada al centro.</desc><defs><mask id="origen-6-veins" maskUnits="userSpaceOnUse" x="0" y="0" width="200" height="210"><rect width="200" height="210" fill="white"/><path d="M86 80C74 65 61 51 48 43" fill="none" stroke="black" stroke-width="3.4" stroke-linecap="round"/><path d="M119 85C133 69 146 57 157 48" fill="none" stroke="black" stroke-width="3.4" stroke-linecap="round"/><path d="M101 119C109 135 119 151 125 165" fill="none" stroke="black" stroke-width="3.4" stroke-linecap="round"/></mask></defs><g mask="url(#origen-6-veins)"><path d="M94 89C60 89 35 64 37 31C72 32 95 53 94 89Z" fill="#416861"/><path d="M111 94C112 58 136 34 170 36C169 71 146 95 111 94Z" fill="#D78867"/><path d="M96 111C127 126 140 152 126 180C95 166 82 138 96 111Z" fill="#D9B05F"/></g></svg>
