<svg width="1516" height="3636" viewBox="0 0 1516 3636" xmlns="http://www.w3.org/2000/svg" font-family="Helvetica, Arial, sans-serif">
<rect width="1516" height="3636" fill="#FFFFFF"/>
<text x="36" y="66" fill="#1E293B" font-size="34" font-weight="600">50 propuestas de marca — V</text>
<text x="36" y="98" fill="#94A3B8" font-size="17">App de bienestar mental · formas suaves, paleta calmada</text>
<line x1="36" y1="120" x2="1480" y2="120" stroke="#E2E8F0" stroke-width="1"/>
<rect x="26" y="176" width="272" height="320" rx="20" fill="#E9F5F4" stroke="#E8EDF2" stroke-width="1"/>
<svg x="26" y="176" width="272" height="272" viewBox="0 0 400 400">
    <path d="M 112 168 C 112 322 288 322 288 168" fill="none" stroke="#3B8A88" stroke-width="44" stroke-linecap="round" stroke-linejoin="round" />
    <circle cx="200" cy="100" r="28" fill="#3B8A88"/>
</svg>
<text x="46" y="464" fill="#CBD5E1" font-size="12" font-weight="700">01</text>
<text x="74" y="464" fill="#1E293B" font-size="16" font-weight="600">Vessel</text>
<text x="46" y="484" fill="#94A3B8" font-size="11">curve_wide · dot · teal</text>
<rect x="324" y="176" width="272" height="320" rx="20" fill="#EDF3EC" stroke="#E8EDF2" stroke-width="1"/>
<svg x="324" y="176" width="272" height="272" viewBox="0 0 400 400">
    <path d="M 118 168 L 200 306 L 282 168" fill="none" stroke="#5F8368" stroke-width="46" stroke-linecap="round" stroke-linejoin="round" />
    <circle cx="200" cy="100" r="28" fill="#5F8368"/>
</svg>
<text x="344" y="464" fill="#CBD5E1" font-size="12" font-weight="700">02</text>
<text x="372" y="464" fill="#1E293B" font-size="16" font-weight="600">Valle</text>
<text x="344" y="484" fill="#94A3B8" font-size="11">wide · dot · salvia</text>
<rect x="622" y="176" width="272" height="320" rx="20" fill="#F7EFE6" stroke="#E8EDF2" stroke-width="1"/>
<svg x="622" y="176" width="272" height="272" viewBox="0 0 400 400">
    <path d="M 118 168 L 200 306 L 282 168 L 248 168 L 200 260 L 152 168 Z" fill="#A8805F" stroke="#A8805F" stroke-width="10" stroke-linejoin="round"/>
    <path d="M 164 110 A 36 36 0 0 1 236 110 Z" fill="#A8805F"/>
</svg>
<text x="642" y="464" fill="#CBD5E1" font-size="12" font-weight="700">03</text>
<text x="670" y="464" fill="#1E293B" font-size="16" font-weight="600">Vela</text>
<text x="642" y="484" fill="#94A3B8" font-size="11">solid · half · arena</text>
<rect x="920" y="176" width="272" height="320" rx="20" fill="#EDF0FB" stroke="#E8EDF2" stroke-width="1"/>
<svg x="920" y="176" width="272" height="272" viewBox="0 0 400 400">
    <path d="M 118 168 L 200 306 L 200 250 L 158 168 Z" fill="#A4B2E2" stroke="#A4B2E2" stroke-width="9" stroke-linejoin="round"/>
    <path d="M 282 168 L 200 306 L 200 250 L 242 168 Z" fill="#4B5EA8" stroke="#4B5EA8" stroke-width="9" stroke-linejoin="round"/>
    <circle cx="200" cy="100" r="46" fill="none" stroke="#A4B2E2" stroke-width="5"/>
    <circle cx="200" cy="100" r="22" fill="#4B5EA8"/>
</svg>
<text x="940" y="464" fill="#CBD5E1" font-size="12" font-weight="700">04</text>
<text x="968" y="464" fill="#1E293B" font-size="16" font-weight="600">Verta</text>
<text x="940" y="484" fill="#94A3B8" font-size="11">facet · dot_ring · indigo</text>
<rect x="1218" y="176" width="272" height="320" rx="20" fill="#ECF1F8" stroke="#E8EDF2" stroke-width="1"/>
<svg x="1218" y="176" width="272" height="272" viewBox="0 0 400 400">
    <path d="M 118 168 Q 148 286 200 306" fill="none" stroke="#4A6FA5" stroke-width="22" stroke-linecap="round" stroke-linejoin="round" />
    <path d="M 282 168 Q 252 286 200 306" fill="none" stroke="#9FBBDA" stroke-width="22" stroke-linecap="round" stroke-linejoin="round" />
    <path d="M 200 72 A 28 28 0 1 0 200 128 A 37 37 0 1 1 200 72 Z" fill="#4A6FA5"/>
</svg>
<text x="1238" y="464" fill="#CBD5E1" font-size="12" font-weight="700">05</text>
<text x="1266" y="464" fill="#1E293B" font-size="16" font-weight="600">Vireo</text>
<text x="1238" y="484" fill="#94A3B8" font-size="11">wing · moon · niebla</text>
<rect x="26" y="522" width="272" height="320" rx="20" fill="#EAF6F3" stroke="#E8EDF2" stroke-width="1"/>
<svg x="26" y="522" width="272" height="272" viewBox="0 0 400 400">
    <path d="M 118 168 L 200 306 L 282 168" fill="none" stroke="#47968C" stroke-width="20" stroke-linecap="round" stroke-linejoin="round" />
    <path d="M 152 168 L 200 260 L 248 168" fill="none" stroke="#A2D5CB" stroke-width="14" stroke-linecap="round" stroke-linejoin="round" />
    <circle cx="200" cy="100" r="28" fill="#47968C"/>
</svg>
<text x="46" y="810" fill="#CBD5E1" font-size="12" font-weight="700">06</text>
<text x="74" y="810" fill="#1E293B" font-size="16" font-weight="600">Vivo</text>
<text x="46" y="830" fill="#94A3B8" font-size="11">double · dot · menta</text>
<rect x="324" y="522" width="272" height="320" rx="20" fill="#F0EDF8" stroke="#E8EDF2" stroke-width="1"/>
<svg x="324" y="522" width="272" height="272" viewBox="0 0 400 400">
    <path d="M 118 168 C 118 316 282 316 282 168" fill="none" stroke="#7268A0" stroke-width="26" stroke-linecap="round" stroke-linejoin="round" />
    <circle cx="200" cy="100" r="54" fill="none" stroke="#B7ACD6" stroke-width="3" opacity="0.55"/>
    <circle cx="200" cy="100" r="40" fill="none" stroke="#B7ACD6" stroke-width="4"/>
    <circle cx="200" cy="100" r="20" fill="#7268A0"/>
</svg>
<text x="344" y="810" fill="#CBD5E1" font-size="12" font-weight="700">07</text>
<text x="372" y="810" fill="#1E293B" font-size="16" font-weight="600">Vaia</text>
<text x="344" y="830" fill="#94A3B8" font-size="11">curve · breath · lavanda</text>
<rect x="622" y="522" width="272" height="320" rx="20" fill="#EBF1F5" stroke="#E8EDF2" stroke-width="1"/>
<svg x="622" y="522" width="272" height="272" viewBox="0 0 400 400">
    <path d="M 118 168 L 200 306 L 282 168" fill="none" stroke="#2F4858" stroke-width="11" stroke-linecap="round" stroke-linejoin="round" />
    <path d="M 180.5 127.9 A 34 34 0 1 1 214.4 130.8" fill="none" stroke="#2F4858" stroke-width="10" stroke-linecap="round" stroke-linejoin="round" />
</svg>
<text x="642" y="810" fill="#CBD5E1" font-size="12" font-weight="700">08</text>
<text x="670" y="810" fill="#1E293B" font-size="16" font-weight="600">Venia</text>
<text x="642" y="830" fill="#94A3B8" font-size="11">thin · enso · abismo</text>
<rect x="920" y="522" width="272" height="320" rx="20" fill="#E9F5F4" stroke="#E8EDF2" stroke-width="1"/>
<svg x="920" y="522" width="272" height="272" viewBox="0 0 400 400">
    <circle cx="200" cy="205" r="152" fill="none" stroke="#8FCBC7" stroke-width="5"/>
    <path d="M 118 168 L 200 306 L 282 168" fill="none" stroke="#3B8A88" stroke-width="26" stroke-linecap="round" stroke-linejoin="round" />
    <circle cx="200" cy="100" r="46" fill="none" stroke="#8FCBC7" stroke-width="5"/>
    <circle cx="200" cy="100" r="22" fill="#3B8A88"/>
</svg>
<text x="940" y="810" fill="#CBD5E1" font-size="12" font-weight="700">09</text>
<text x="968" y="810" fill="#1E293B" font-size="16" font-weight="600">Vero</text>
<text x="940" y="830" fill="#94A3B8" font-size="11">stroke · dot_ring · teal</text>
<rect x="1218" y="522" width="272" height="320" rx="20" fill="#F4EDF3" stroke="#E8EDF2" stroke-width="1"/>
<svg x="1218" y="522" width="272" height="272" viewBox="0 0 400 400">
    <path d="M 118 168 L 200 306 L 282 168" fill="none" stroke="#7A5878" stroke-width="16" stroke-linecap="round" stroke-linejoin="round" stroke-dasharray="0.1 30"/>
    <circle cx="200" cy="100" r="28" fill="#7A5878"/>
</svg>
<text x="1238" y="810" fill="#CBD5E1" font-size="12" font-weight="700">10</text>
<text x="1266" y="810" fill="#1E293B" font-size="16" font-weight="600">Vanta</text>
<text x="1238" y="830" fill="#94A3B8" font-size="11">dotted · dot · ciruela</text>
<rect x="26" y="868" width="272" height="320" rx="20" fill="#FAEDE7" stroke="#E8EDF2" stroke-width="1"/>
<svg x="26" y="868" width="272" height="272" viewBox="0 0 400 400">
    <path d="M 118 168 C 118 316 282 316 282 168" fill="none" stroke="#B4785D" stroke-width="26" stroke-linecap="round" stroke-linejoin="round" />
    <path d="M 168 112 A 32 32 0 0 1 232 112 Z" fill="#B4785D"/>
    <path d="M 150.0 112.0 A 50 50 0 0 1 250.0 112.0" fill="none" stroke="#E3B6A2" stroke-width="5" stroke-linecap="round" stroke-linejoin="round" />
    <path d="M 134.0 112.0 A 66 66 0 0 1 266.0 112.0" fill="none" stroke="#E3B6A2" stroke-width="4" stroke-linecap="round" stroke-linejoin="round" opacity="0.5"/>
</svg>
<text x="46" y="1156" fill="#CBD5E1" font-size="12" font-weight="700">11</text>
<text x="74" y="1156" fill="#1E293B" font-size="16" font-weight="600">Vera</text>
<text x="46" y="1176" fill="#94A3B8" font-size="11">curve · sunrise · terracota</text>
<rect x="324" y="868" width="272" height="320" rx="20" fill="#EDF3EC" stroke="#E8EDF2" stroke-width="1"/>
<svg x="324" y="868" width="272" height="272" viewBox="0 0 400 400">
    <path d="M 121 174 L 142 208" fill="none" stroke="#5F8368" stroke-width="20" stroke-linecap="round" stroke-linejoin="round" />
    <path d="M 279 174 L 258 208" fill="none" stroke="#A9C6A6" stroke-width="20" stroke-linecap="round" stroke-linejoin="round" />
    <path d="M 149 220 L 169 254" fill="none" stroke="#5F8368" stroke-width="20" stroke-linecap="round" stroke-linejoin="round" />
    <path d="M 251 220 L 231 254" fill="none" stroke="#A9C6A6" stroke-width="20" stroke-linecap="round" stroke-linejoin="round" />
    <path d="M 176 266 L 197 300" fill="none" stroke="#5F8368" stroke-width="20" stroke-linecap="round" stroke-linejoin="round" />
    <path d="M 224 266 L 203 300" fill="none" stroke="#A9C6A6" stroke-width="20" stroke-linecap="round" stroke-linejoin="round" />
    <circle cx="166" cy="116" r="8" fill="#5F8368"/>
    <circle cx="200" cy="100" r="15" fill="#5F8368"/>
    <circle cx="234" cy="116" r="8" fill="#5F8368"/>
</svg>
<text x="344" y="1156" fill="#CBD5E1" font-size="12" font-weight="700">12</text>
<text x="372" y="1156" fill="#1E293B" font-size="16" font-weight="600">Volta</text>
<text x="344" y="1176" fill="#94A3B8" font-size="11">steps · triple · salvia</text>
<rect x="622" y="868" width="272" height="320" rx="20" fill="#ECF1F8" stroke="#E8EDF2" stroke-width="1"/>
<svg x="622" y="868" width="272" height="272" viewBox="0 0 400 400">
    <path d="M 118 168 L 200 306 L 164 168 Z" fill="#9FBBDA"/>
    <path d="M 282 168 L 200 306 L 236 168 Z" fill="#4A6FA5"/>
    <circle cx="200" cy="100" r="28" fill="#4A6FA5"/>
</svg>
<text x="642" y="1156" fill="#CBD5E1" font-size="12" font-weight="700">13</text>
<text x="670" y="1156" fill="#1E293B" font-size="16" font-weight="600">Vidra</text>
<text x="642" y="1176" fill="#94A3B8" font-size="11">taper · dot · niebla</text>
<rect x="920" y="868" width="272" height="320" rx="20" fill="#EAF6F3" stroke="#E8EDF2" stroke-width="1"/>
<svg x="920" y="868" width="272" height="272" viewBox="0 0 400 400">
    <path d="M 118 168 C 118 306 282 306 282 168" fill="none" stroke="#A2D5CB" stroke-width="14" stroke-linecap="round" stroke-linejoin="round" />
    <path d="M 144 181 C 144 280 256 280 256 181" fill="none" stroke="#47968C" stroke-width="22" stroke-linecap="round" stroke-linejoin="round" />
    <circle cx="200" cy="100" r="28" fill="#47968C"/>
</svg>
<text x="940" y="1156" fill="#CBD5E1" font-size="12" font-weight="700">14</text>
<text x="968" y="1156" fill="#1E293B" font-size="16" font-weight="600">Vinta</text>
<text x="940" y="1176" fill="#94A3B8" font-size="11">nest · dot · menta</text>
<rect x="1218" y="868" width="272" height="320" rx="20" fill="#EBF1F5" stroke="#E8EDF2" stroke-width="1"/>
<svg x="1218" y="868" width="272" height="272" viewBox="0 0 400 400">
    <path d="M 118 168 C 132 238 170 254 200 306" fill="none" stroke="#2F4858" stroke-width="22" stroke-linecap="round" stroke-linejoin="round" />
    <path d="M 282 168 C 268 238 230 254 200 306" fill="none" stroke="#2F4858" stroke-width="22" stroke-linecap="round" stroke-linejoin="round" />
    <path d="M 200 62 C 228 96 228 128 200 128 C 172 128 172 96 200 62 Z" fill="#2F4858"/>
</svg>
<text x="1238" y="1156" fill="#CBD5E1" font-size="12" font-weight="700">15</text>
<text x="1266" y="1156" fill="#1E293B" font-size="16" font-weight="600">Vetta</text>
<text x="1238" y="1176" fill="#94A3B8" font-size="11">wave · drop · abismo</text>
<rect x="26" y="1214" width="272" height="320" rx="20" fill="#F7EFE6" stroke="#E8EDF2" stroke-width="1"/>
<svg x="26" y="1214" width="272" height="272" viewBox="0 0 400 400">
    <path d="M 118 168 C 124 300 276 300 282 168" fill="none" stroke="#A8805F" stroke-width="24" stroke-linecap="round" stroke-linejoin="round" />
    <path d="M 200 302 L 200 328" fill="none" stroke="#A8805F" stroke-width="20" stroke-linecap="round" stroke-linejoin="round" />
    <path d="M 162 332 L 238 332" fill="none" stroke="#DCC0A0" stroke-width="18" stroke-linecap="round" stroke-linejoin="round" />
    <circle cx="200" cy="100" r="28" fill="#A8805F"/>
</svg>
<text x="46" y="1502" fill="#CBD5E1" font-size="12" font-weight="700">16</text>
<text x="74" y="1502" fill="#1E293B" font-size="16" font-weight="600">Vanya</text>
<text x="46" y="1522" fill="#94A3B8" font-size="11">chalice · dot · arena</text>
<rect x="324" y="1214" width="272" height="320" rx="20" fill="#F0EDF8" stroke="#E8EDF2" stroke-width="1"/>
<svg x="324" y="1214" width="272" height="272" viewBox="0 0 400 400">
    <path d="M 118 168 L 200 306 L 282 168" fill="none" stroke="#7268A0" stroke-width="26" stroke-linecap="round" stroke-linejoin="round" />
    <ellipse cx="200" cy="96" rx="11" ry="26" fill="#7268A0" opacity="0.9" transform="rotate(-38 200 118)"/>
    <ellipse cx="200" cy="96" rx="11" ry="26" fill="#7268A0" opacity="0.9" transform="rotate(0 200 118)"/>
    <ellipse cx="200" cy="96" rx="11" ry="26" fill="#7268A0" opacity="0.9" transform="rotate(38 200 118)"/>
</svg>
<text x="344" y="1502" fill="#CBD5E1" font-size="12" font-weight="700">17</text>
<text x="372" y="1502" fill="#1E293B" font-size="16" font-weight="600">Vira</text>
<text x="344" y="1522" fill="#94A3B8" font-size="11">stroke · lotus · lavanda</text>
<rect x="622" y="1214" width="272" height="320" rx="20" fill="#E9F5F4" stroke="#E8EDF2" stroke-width="1"/>
<svg x="622" y="1214" width="272" height="272" viewBox="0 0 400 400">
    <path d="M 118 168 C 118 316 282 316 282 168" fill="none" stroke="#3B8A88" stroke-width="26" stroke-linecap="round" stroke-linejoin="round" />
    <path d="M 180.7 110.8 A 20 20 0 0 1 219.3 110.8" fill="none" stroke="#3B8A88" stroke-width="6" stroke-linecap="round" stroke-linejoin="round" opacity="1"/>
    <path d="M 164.3 106.4 A 37 37 0 0 1 235.7 106.4" fill="none" stroke="#3B8A88" stroke-width="6" stroke-linecap="round" stroke-linejoin="round" opacity="0.65"/>
    <path d="M 147.8 102.0 A 54 54 0 0 1 252.2 102.0" fill="none" stroke="#3B8A88" stroke-width="6" stroke-linecap="round" stroke-linejoin="round" opacity="0.35"/>
</svg>
<text x="642" y="1502" fill="#CBD5E1" font-size="12" font-weight="700">18</text>
<text x="670" y="1502" fill="#1E293B" font-size="16" font-weight="600">Vesna</text>
<text x="642" y="1522" fill="#94A3B8" font-size="11">curve · arcs · teal</text>
<rect x="920" y="1214" width="272" height="320" rx="20" fill="#EDF0FB" stroke="#E8EDF2" stroke-width="1"/>
<svg x="920" y="1214" width="272" height="272" viewBox="0 0 400 400">
    <path d="M 118 168 L 200 306 L 282 168" fill="none" stroke="#4B5EA8" stroke-width="46" stroke-linecap="round" stroke-linejoin="round" />
    <circle cx="200" cy="100" r="28" fill="none" stroke="#4B5EA8" stroke-width="12"/>
</svg>
<text x="940" y="1502" fill="#CBD5E1" font-size="12" font-weight="700">19</text>
<text x="968" y="1502" fill="#1E293B" font-size="16" font-weight="600">Valen</text>
<text x="940" y="1522" fill="#94A3B8" font-size="11">wide · ring · indigo</text>
<rect x="1218" y="1214" width="272" height="320" rx="20" fill="#F4EDF3" stroke="#E8EDF2" stroke-width="1"/>
<svg x="1218" y="1214" width="272" height="272" viewBox="0 0 400 400">
    <path d="M 118 168 L 184 280" fill="none" stroke="#7A5878" stroke-width="24" stroke-linecap="round" stroke-linejoin="round" />
    <path d="M 282 168 L 216 280" fill="none" stroke="#C2A4BE" stroke-width="24" stroke-linecap="round" stroke-linejoin="round" />
    <circle cx="200" cy="100" r="28" fill="#7A5878"/>
</svg>
<text x="1238" y="1502" fill="#CBD5E1" font-size="12" font-weight="700">20</text>
<text x="1266" y="1502" fill="#1E293B" font-size="16" font-weight="600">Vosk</text>
<text x="1238" y="1522" fill="#94A3B8" font-size="11">split · dot · ciruela</text>
<rect x="26" y="1560" width="272" height="320" rx="20" fill="#EDF3EC" stroke="#E8EDF2" stroke-width="1"/>
<svg x="26" y="1560" width="272" height="272" viewBox="0 0 400 400">
    <path d="M 118 168 C 118 306 282 306 282 168" fill="none" stroke="#5F8368" stroke-width="20" stroke-linecap="round" stroke-linejoin="round" />
    <path d="M 150 168 C 150 262 250 262 250 168" fill="none" stroke="#A9C6A6" stroke-width="12" stroke-linecap="round" stroke-linejoin="round" />
    <circle cx="200" cy="100" r="28" fill="#5F8368"/>
</svg>
<text x="46" y="1848" fill="#CBD5E1" font-size="12" font-weight="700">21</text>
<text x="74" y="1848" fill="#1E293B" font-size="16" font-weight="600">Vinea</text>
<text x="46" y="1868" fill="#94A3B8" font-size="11">double_curve · dot · salvia</text>
<rect x="324" y="1560" width="272" height="320" rx="20" fill="#ECF1F8" stroke="#E8EDF2" stroke-width="1"/>
<svg x="324" y="1560" width="272" height="272" viewBox="0 0 400 400">
    <path d="M 118 168 L 200 306 L 282 168 L 248 168 L 200 260 L 152 168 Z" fill="#4A6FA5" stroke="#4A6FA5" stroke-width="10" stroke-linejoin="round"/>
    <circle cx="200" cy="100" r="54" fill="none" stroke="#9FBBDA" stroke-width="3" opacity="0.55"/>
    <circle cx="200" cy="100" r="40" fill="none" stroke="#9FBBDA" stroke-width="4"/>
    <circle cx="200" cy="100" r="20" fill="#4A6FA5"/>
</svg>
<text x="344" y="1848" fill="#CBD5E1" font-size="12" font-weight="700">22</text>
<text x="372" y="1848" fill="#1E293B" font-size="16" font-weight="600">Vantia</text>
<text x="344" y="1868" fill="#94A3B8" font-size="11">solid · breath · niebla</text>
<rect x="622" y="1560" width="272" height="320" rx="20" fill="#EAF6F3" stroke="#E8EDF2" stroke-width="1"/>
<svg x="622" y="1560" width="272" height="272" viewBox="0 0 400 400">
    <path d="M 118 168 L 200 306 L 282 168" fill="none" stroke="#47968C" stroke-width="11" stroke-linecap="round" stroke-linejoin="round" />
    <circle cx="200" cy="106" r="24" fill="#47968C"/>
    <path d="M 200 76 C 222 54 214 34 200 28" fill="none" stroke="#A2D5CB" stroke-width="8" stroke-linecap="round" stroke-linejoin="round" />
</svg>
<text x="642" y="1848" fill="#CBD5E1" font-size="12" font-weight="700">23</text>
<text x="670" y="1848" fill="#1E293B" font-size="16" font-weight="600">Voru</text>
<text x="642" y="1868" fill="#94A3B8" font-size="11">thin · seed · menta</text>
<rect x="920" y="1560" width="272" height="320" rx="20" fill="#FAEDE7" stroke="#E8EDF2" stroke-width="1"/>
<svg x="920" y="1560" width="272" height="272" viewBox="0 0 400 400">
    <path d="M 118 168 L 200 306 L 282 168" fill="none" stroke="#B4785D" stroke-width="18" stroke-linecap="round" stroke-linejoin="round" stroke-dasharray="34 22"/>
    <circle cx="200" cy="100" r="28" fill="#B4785D"/>
</svg>
<text x="940" y="1848" fill="#CBD5E1" font-size="12" font-weight="700">24</text>
<text x="968" y="1848" fill="#1E293B" font-size="16" font-weight="600">Vori</text>
<text x="940" y="1868" fill="#94A3B8" font-size="11">dashed · dot · terracota</text>
<rect x="1218" y="1560" width="272" height="320" rx="20" fill="#EBF1F5" stroke="#E8EDF2" stroke-width="1"/>
<svg x="1218" y="1560" width="272" height="272" viewBox="0 0 400 400">
    <circle cx="200" cy="245" r="104" fill="#2F4858"/>
    <path d="M 146 190 L 200 268 L 254 190" fill="none" stroke="#FFFFFF" stroke-width="24" stroke-linecap="round" stroke-linejoin="round" />
</svg>
<text x="1238" y="1848" fill="#CBD5E1" font-size="12" font-weight="700">25</text>
<text x="1266" y="1848" fill="#1E293B" font-size="16" font-weight="600">Vuma</text>
<text x="1238" y="1868" fill="#94A3B8" font-size="11">negative · none · abismo</text>
<rect x="26" y="1906" width="272" height="320" rx="20" fill="#E9F5F4" stroke="#E8EDF2" stroke-width="1"/>
<svg x="26" y="1906" width="272" height="272" viewBox="0 0 400 400">
    <circle cx="200" cy="205" r="152" fill="none" stroke="#8FCBC7" stroke-width="4" opacity="0.6"/>
    <path d="M 118 168 Q 148 286 200 306" fill="none" stroke="#3B8A88" stroke-width="22" stroke-linecap="round" stroke-linejoin="round" />
    <path d="M 282 168 Q 252 286 200 306" fill="none" stroke="#8FCBC7" stroke-width="22" stroke-linecap="round" stroke-linejoin="round" />
    <circle cx="200" cy="100" r="28" fill="#3B8A88"/>
</svg>
<text x="46" y="2194" fill="#CBD5E1" font-size="12" font-weight="700">26</text>
<text x="74" y="2194" fill="#1E293B" font-size="16" font-weight="600">Vayu</text>
<text x="46" y="2214" fill="#94A3B8" font-size="11">wing · dot · teal</text>
<rect x="324" y="1906" width="272" height="320" rx="20" fill="#F0EDF8" stroke="#E8EDF2" stroke-width="1"/>
<svg x="324" y="1906" width="272" height="272" viewBox="0 0 400 400">
    <path d="M 112 168 C 112 322 288 322 288 168" fill="none" stroke="#7268A0" stroke-width="44" stroke-linecap="round" stroke-linejoin="round" />
    <path d="M 164 110 A 36 36 0 0 1 236 110 Z" fill="#7268A0"/>
</svg>
<text x="344" y="2194" fill="#CBD5E1" font-size="12" font-weight="700">27</text>
<text x="372" y="2194" fill="#1E293B" font-size="16" font-weight="600">Vanda</text>
<text x="344" y="2214" fill="#94A3B8" font-size="11">curve_wide · half · lavanda</text>
<rect x="622" y="1906" width="272" height="320" rx="20" fill="#EDF0FB" stroke="#E8EDF2" stroke-width="1"/>
<svg x="622" y="1906" width="272" height="272" viewBox="0 0 400 400">
    <path d="M 118 168 L 200 306 L 282 168" fill="none" stroke="#4B5EA8" stroke-width="26" stroke-linecap="round" stroke-linejoin="round" />
    <circle cx="200" cy="100" r="22" fill="#4B5EA8"/>
    <ellipse cx="200" cy="100" rx="52" ry="26" fill="none" stroke="#A4B2E2" stroke-width="4" transform="rotate(-22 200 100)"/>
</svg>
<text x="642" y="2194" fill="#CBD5E1" font-size="12" font-weight="700">28</text>
<text x="670" y="2194" fill="#1E293B" font-size="16" font-weight="600">Vinca</text>
<text x="642" y="2214" fill="#94A3B8" font-size="11">stroke · orbit · indigo</text>
<rect x="920" y="1906" width="272" height="320" rx="20" fill="#F7EFE6" stroke="#E8EDF2" stroke-width="1"/>
<svg x="920" y="1906" width="272" height="272" viewBox="0 0 400 400">
    <circle cx="200" cy="205" r="156" fill="#DCC0A0" opacity="0.16"/>
    <path d="M 118 168 L 200 306 L 200 250 L 158 168 Z" fill="#DCC0A0" stroke="#DCC0A0" stroke-width="9" stroke-linejoin="round"/>
    <path d="M 282 168 L 200 306 L 200 250 L 242 168 Z" fill="#A8805F" stroke="#A8805F" stroke-width="9" stroke-linejoin="round"/>
    <circle cx="200" cy="100" r="28" fill="#A8805F"/>
</svg>
<text x="940" y="2194" fill="#CBD5E1" font-size="12" font-weight="700">29</text>
<text x="968" y="2194" fill="#1E293B" font-size="16" font-weight="600">Voss</text>
<text x="940" y="2214" fill="#94A3B8" font-size="11">facet · dot · arena</text>
<rect x="1218" y="1906" width="272" height="320" rx="20" fill="#EDF3EC" stroke="#E8EDF2" stroke-width="1"/>
<svg x="1218" y="1906" width="272" height="272" viewBox="0 0 400 400">
    <path d="M 118 220 L 186 306 L 290 144" fill="none" stroke="#5F8368" stroke-width="26" stroke-linecap="round" stroke-linejoin="round" />
    <circle cx="200" cy="100" r="28" fill="#5F8368"/>
</svg>
<text x="1238" y="2194" fill="#CBD5E1" font-size="12" font-weight="700">30</text>
<text x="1266" y="2194" fill="#1E293B" font-size="16" font-weight="600">Vale</text>
<text x="1238" y="2214" fill="#94A3B8" font-size="11">check · dot · salvia</text>
<rect x="26" y="2252" width="272" height="320" rx="20" fill="#F4EDF3" stroke="#E8EDF2" stroke-width="1"/>
<svg x="26" y="2252" width="272" height="272" viewBox="0 0 400 400">
    <path d="M 118 168 C 118 316 282 316 282 168" fill="none" stroke="#7A5878" stroke-width="26" stroke-linecap="round" stroke-linejoin="round" />
    <path d="M 200 72 A 28 28 0 1 0 200 128 A 37 37 0 1 1 200 72 Z" fill="#7A5878"/>
</svg>
<text x="46" y="2540" fill="#CBD5E1" font-size="12" font-weight="700">31</text>
<text x="74" y="2540" fill="#1E293B" font-size="16" font-weight="600">Viora</text>
<text x="46" y="2560" fill="#94A3B8" font-size="11">curve · moon · ciruela</text>
<rect x="324" y="2252" width="272" height="320" rx="20" fill="#ECF1F8" stroke="#E8EDF2" stroke-width="1"/>
<svg x="324" y="2252" width="272" height="272" viewBox="0 0 400 400">
    <path d="M 118 168 L 200 306 L 282 168" fill="none" stroke="#4A6FA5" stroke-width="46" stroke-linecap="round" stroke-linejoin="round" />
    <path d="M 200 62 C 228 96 228 128 200 128 C 172 128 172 96 200 62 Z" fill="#4A6FA5"/>
</svg>
<text x="344" y="2540" fill="#CBD5E1" font-size="12" font-weight="700">32</text>
<text x="372" y="2540" fill="#1E293B" font-size="16" font-weight="600">Vinda</text>
<text x="344" y="2560" fill="#94A3B8" font-size="11">wide · drop · niebla</text>
<rect x="622" y="2252" width="272" height="320" rx="20" fill="#EAF6F3" stroke="#E8EDF2" stroke-width="1"/>
<svg x="622" y="2252" width="272" height="272" viewBox="0 0 400 400">
    <path d="M 118 168 L 200 306 L 282 168" fill="none" stroke="#47968C" stroke-width="16" stroke-linecap="round" stroke-linejoin="round" stroke-dasharray="0.1 30"/>
    <circle cx="200" cy="100" r="54" fill="none" stroke="#A2D5CB" stroke-width="3" opacity="0.55"/>
    <circle cx="200" cy="100" r="40" fill="none" stroke="#A2D5CB" stroke-width="4"/>
    <circle cx="200" cy="100" r="20" fill="#47968C"/>
</svg>
<text x="642" y="2540" fill="#CBD5E1" font-size="12" font-weight="700">33</text>
<text x="670" y="2540" fill="#1E293B" font-size="16" font-weight="600">Veya</text>
<text x="642" y="2560" fill="#94A3B8" font-size="11">dotted · breath · menta</text>
<rect x="920" y="2252" width="272" height="320" rx="20" fill="#EBF1F5" stroke="#E8EDF2" stroke-width="1"/>
<svg x="920" y="2252" width="272" height="272" viewBox="0 0 400 400">
    <path d="M 118 168 L 200 306 L 282 168 L 248 168 L 200 260 L 152 168 Z" fill="#2F4858" stroke="#2F4858" stroke-width="10" stroke-linejoin="round"/>
    <circle cx="200" cy="100" r="28" fill="none" stroke="#2F4858" stroke-width="12"/>
</svg>
<text x="940" y="2540" fill="#CBD5E1" font-size="12" font-weight="700">34</text>
<text x="968" y="2540" fill="#1E293B" font-size="16" font-weight="600">Vada</text>
<text x="940" y="2560" fill="#94A3B8" font-size="11">solid · ring · abismo</text>
<rect x="1218" y="2252" width="272" height="320" rx="20" fill="#FAEDE7" stroke="#E8EDF2" stroke-width="1"/>
<svg x="1218" y="2252" width="272" height="272" viewBox="0 0 400 400">
    <path d="M 118 168 L 200 306 L 282 168" fill="none" stroke="#B4785D" stroke-width="20" stroke-linecap="round" stroke-linejoin="round" />
    <path d="M 152 168 L 200 260 L 248 168" fill="none" stroke="#E3B6A2" stroke-width="14" stroke-linecap="round" stroke-linejoin="round" />
    <path d="M 168 112 A 32 32 0 0 1 232 112 Z" fill="#B4785D"/>
    <path d="M 150.0 112.0 A 50 50 0 0 1 250.0 112.0" fill="none" stroke="#E3B6A2" stroke-width="5" stroke-linecap="round" stroke-linejoin="round" />
    <path d="M 134.0 112.0 A 66 66 0 0 1 266.0 112.0" fill="none" stroke="#E3B6A2" stroke-width="4" stroke-linecap="round" stroke-linejoin="round" opacity="0.5"/>
</svg>
<text x="1238" y="2540" fill="#CBD5E1" font-size="12" font-weight="700">35</text>
<text x="1266" y="2540" fill="#1E293B" font-size="16" font-weight="600">Verna</text>
<text x="1238" y="2560" fill="#94A3B8" font-size="11">double · sunrise · terracota</text>
<rect x="26" y="2598" width="272" height="320" rx="20" fill="#E9F5F4" stroke="#E8EDF2" stroke-width="1"/>
<svg x="26" y="2598" width="272" height="272" viewBox="0 0 400 400">
    <path d="M 118 168 C 118 306 282 306 282 168" fill="none" stroke="#8FCBC7" stroke-width="14" stroke-linecap="round" stroke-linejoin="round" />
    <path d="M 144 181 C 144 280 256 280 256 181" fill="none" stroke="#3B8A88" stroke-width="22" stroke-linecap="round" stroke-linejoin="round" />
    <path d="M 180.5 127.9 A 34 34 0 1 1 214.4 130.8" fill="none" stroke="#3B8A88" stroke-width="10" stroke-linecap="round" stroke-linejoin="round" />
</svg>
<text x="46" y="2886" fill="#CBD5E1" font-size="12" font-weight="700">36</text>
<text x="74" y="2886" fill="#1E293B" font-size="16" font-weight="600">Vola</text>
<text x="46" y="2906" fill="#94A3B8" font-size="11">nest · enso · teal</text>
<rect x="324" y="2598" width="272" height="320" rx="20" fill="#F0EDF8" stroke="#E8EDF2" stroke-width="1"/>
<svg x="324" y="2598" width="272" height="272" viewBox="0 0 400 400">
    <circle cx="200" cy="205" r="152" fill="none" stroke="#B7ACD6" stroke-width="4" stroke-dasharray="3 16"/>
    <path d="M 118 168 L 200 306 L 282 168" fill="none" stroke="#7268A0" stroke-width="11" stroke-linecap="round" stroke-linejoin="round" />
    <circle cx="200" cy="100" r="46" fill="none" stroke="#B7ACD6" stroke-width="5"/>
    <circle cx="200" cy="100" r="22" fill="#7268A0"/>
</svg>
<text x="344" y="2886" fill="#CBD5E1" font-size="12" font-weight="700">37</text>
<text x="372" y="2886" fill="#1E293B" font-size="16" font-weight="600">Vuna</text>
<text x="344" y="2906" fill="#94A3B8" font-size="11">thin · dot_ring · lavanda</text>
<rect x="622" y="2598" width="272" height="320" rx="20" fill="#EDF3EC" stroke="#E8EDF2" stroke-width="1"/>
<svg x="622" y="2598" width="272" height="272" viewBox="0 0 400 400">
    <path d="M 118 168 C 132 238 170 254 200 306" fill="none" stroke="#5F8368" stroke-width="22" stroke-linecap="round" stroke-linejoin="round" />
    <path d="M 282 168 C 268 238 230 254 200 306" fill="none" stroke="#5F8368" stroke-width="22" stroke-linecap="round" stroke-linejoin="round" />
    <circle cx="166" cy="116" r="8" fill="#5F8368"/>
    <circle cx="200" cy="100" r="15" fill="#5F8368"/>
    <circle cx="234" cy="116" r="8" fill="#5F8368"/>
</svg>
<text x="642" y="2886" fill="#CBD5E1" font-size="12" font-weight="700">38</text>
<text x="670" y="2886" fill="#1E293B" font-size="16" font-weight="600">Vayra</text>
<text x="642" y="2906" fill="#94A3B8" font-size="11">wave · triple · salvia</text>
<rect x="920" y="2598" width="272" height="320" rx="20" fill="#EDF0FB" stroke="#E8EDF2" stroke-width="1"/>
<svg x="920" y="2598" width="272" height="272" viewBox="0 0 400 400">
    <path d="M 118 168 C 136 248 186 294 216 306" fill="none" stroke="#A4B2E2" stroke-width="21" stroke-linecap="round" stroke-linejoin="round" />
    <path d="M 282 168 C 264 248 214 294 184 306" fill="none" stroke="#4B5EA8" stroke-width="21" stroke-linecap="round" stroke-linejoin="round" />
    <circle cx="200" cy="100" r="28" fill="#4B5EA8"/>
</svg>
<text x="940" y="2886" fill="#CBD5E1" font-size="12" font-weight="700">39</text>
<text x="968" y="2886" fill="#1E293B" font-size="16" font-weight="600">Vena</text>
<text x="940" y="2906" fill="#94A3B8" font-size="11">ribbon · dot · indigo</text>
<rect x="1218" y="2598" width="272" height="320" rx="20" fill="#F4EDF3" stroke="#E8EDF2" stroke-width="1"/>
<svg x="1218" y="2598" width="272" height="272" viewBox="0 0 400 400">
    <path d="M 118 168 C 124 300 276 300 282 168" fill="none" stroke="#7A5878" stroke-width="24" stroke-linecap="round" stroke-linejoin="round" />
    <path d="M 200 302 L 200 328" fill="none" stroke="#7A5878" stroke-width="20" stroke-linecap="round" stroke-linejoin="round" />
    <path d="M 162 332 L 238 332" fill="none" stroke="#C2A4BE" stroke-width="18" stroke-linecap="round" stroke-linejoin="round" />
    <circle cx="200" cy="100" r="28" fill="none" stroke="#7A5878" stroke-width="12"/>
</svg>
<text x="1238" y="2886" fill="#CBD5E1" font-size="12" font-weight="700">40</text>
<text x="1266" y="2886" fill="#1E293B" font-size="16" font-weight="600">Vaso</text>
<text x="1238" y="2906" fill="#94A3B8" font-size="11">chalice · ring · ciruela</text>
<rect x="26" y="2944" width="272" height="320" rx="20" fill="#ECF1F8" stroke="#E8EDF2" stroke-width="1"/>
<svg x="26" y="2944" width="272" height="272" viewBox="0 0 400 400">
    <path d="M 118 168 L 200 306 L 282 168" fill="none" stroke="#4A6FA5" stroke-width="26" stroke-linecap="round" stroke-linejoin="round" />
    <path d="M 148 100 L 176 100 L 190 78 L 208 120 L 222 100 L 252 100" fill="none" stroke="#4A6FA5" stroke-width="9" stroke-linecap="round" stroke-linejoin="round" />
</svg>
<text x="46" y="3232" fill="#CBD5E1" font-size="12" font-weight="700">41</text>
<text x="74" y="3232" fill="#1E293B" font-size="16" font-weight="600">Vega</text>
<text x="46" y="3252" fill="#94A3B8" font-size="11">stroke · pulse · niebla</text>
<rect x="324" y="2944" width="272" height="320" rx="20" fill="#EAF6F3" stroke="#E8EDF2" stroke-width="1"/>
<svg x="324" y="2944" width="272" height="272" viewBox="0 0 400 400">
    <path d="M 112 168 C 112 322 288 322 288 168" fill="none" stroke="#47968C" stroke-width="44" stroke-linecap="round" stroke-linejoin="round" />
    <path d="M 180.7 110.8 A 20 20 0 0 1 219.3 110.8" fill="none" stroke="#47968C" stroke-width="6" stroke-linecap="round" stroke-linejoin="round" opacity="1"/>
    <path d="M 164.3 106.4 A 37 37 0 0 1 235.7 106.4" fill="none" stroke="#47968C" stroke-width="6" stroke-linecap="round" stroke-linejoin="round" opacity="0.65"/>
    <path d="M 147.8 102.0 A 54 54 0 0 1 252.2 102.0" fill="none" stroke="#47968C" stroke-width="6" stroke-linecap="round" stroke-linejoin="round" opacity="0.35"/>
</svg>
<text x="344" y="3232" fill="#CBD5E1" font-size="12" font-weight="700">42</text>
<text x="372" y="3232" fill="#1E293B" font-size="16" font-weight="600">Vala</text>
<text x="344" y="3252" fill="#94A3B8" font-size="11">curve_wide · arcs · menta</text>
<rect x="622" y="2944" width="272" height="320" rx="20" fill="#F7EFE6" stroke="#E8EDF2" stroke-width="1"/>
<svg x="622" y="2944" width="272" height="272" viewBox="0 0 400 400">
    <path d="M 118 168 L 200 306 L 164 168 Z" fill="#DCC0A0"/>
    <path d="M 282 168 L 200 306 L 236 168 Z" fill="#A8805F"/>
    <path d="M 164 110 A 36 36 0 0 1 236 110 Z" fill="#A8805F"/>
</svg>
<text x="642" y="3232" fill="#CBD5E1" font-size="12" font-weight="700">43</text>
<text x="670" y="3232" fill="#1E293B" font-size="16" font-weight="600">Vidan</text>
<text x="642" y="3252" fill="#94A3B8" font-size="11">taper · half · arena</text>
<rect x="920" y="2944" width="272" height="320" rx="20" fill="#EBF1F5" stroke="#E8EDF2" stroke-width="1"/>
<svg x="920" y="2944" width="272" height="272" viewBox="0 0 400 400">
    <circle cx="200" cy="205" r="152" fill="none" stroke="#7FA6BC" stroke-width="4" opacity="0.6"/>
    <path d="M 121 174 L 142 208" fill="none" stroke="#2F4858" stroke-width="20" stroke-linecap="round" stroke-linejoin="round" />
    <path d="M 279 174 L 258 208" fill="none" stroke="#7FA6BC" stroke-width="20" stroke-linecap="round" stroke-linejoin="round" />
    <path d="M 149 220 L 169 254" fill="none" stroke="#2F4858" stroke-width="20" stroke-linecap="round" stroke-linejoin="round" />
    <path d="M 251 220 L 231 254" fill="none" stroke="#7FA6BC" stroke-width="20" stroke-linecap="round" stroke-linejoin="round" />
    <path d="M 176 266 L 197 300" fill="none" stroke="#2F4858" stroke-width="20" stroke-linecap="round" stroke-linejoin="round" />
    <path d="M 224 266 L 203 300" fill="none" stroke="#7FA6BC" stroke-width="20" stroke-linecap="round" stroke-linejoin="round" />
    <circle cx="200" cy="100" r="28" fill="#2F4858"/>
</svg>
<text x="940" y="3232" fill="#CBD5E1" font-size="12" font-weight="700">44</text>
<text x="968" y="3232" fill="#1E293B" font-size="16" font-weight="600">Vise</text>
<text x="940" y="3252" fill="#94A3B8" font-size="11">steps · dot · abismo</text>
<rect x="1218" y="2944" width="272" height="320" rx="20" fill="#FAEDE7" stroke="#E8EDF2" stroke-width="1"/>
<svg x="1218" y="2944" width="272" height="272" viewBox="0 0 400 400">
    <path d="M 118 168 C 118 306 282 306 282 168" fill="none" stroke="#B4785D" stroke-width="20" stroke-linecap="round" stroke-linejoin="round" />
    <path d="M 150 168 C 150 262 250 262 250 168" fill="none" stroke="#E3B6A2" stroke-width="12" stroke-linecap="round" stroke-linejoin="round" />
    <ellipse cx="200" cy="96" rx="11" ry="26" fill="#B4785D" opacity="0.9" transform="rotate(-38 200 118)"/>
    <ellipse cx="200" cy="96" rx="11" ry="26" fill="#B4785D" opacity="0.9" transform="rotate(0 200 118)"/>
    <ellipse cx="200" cy="96" rx="11" ry="26" fill="#B4785D" opacity="0.9" transform="rotate(38 200 118)"/>
</svg>
<text x="1238" y="3232" fill="#CBD5E1" font-size="12" font-weight="700">45</text>
<text x="1266" y="3232" fill="#1E293B" font-size="16" font-weight="600">Vora</text>
<text x="1238" y="3252" fill="#94A3B8" font-size="11">double_curve · lotus · terracota</text>
<rect x="26" y="3290" width="272" height="320" rx="20" fill="#EDF3EC" stroke="#E8EDF2" stroke-width="1"/>
<svg x="26" y="3290" width="272" height="272" viewBox="0 0 400 400">
    <path d="M 118 168 L 200 306 L 282 168" fill="none" stroke="#5F8368" stroke-width="18" stroke-linecap="round" stroke-linejoin="round" stroke-dasharray="34 22"/>
    <circle cx="200" cy="106" r="24" fill="#5F8368"/>
    <path d="M 200 76 C 222 54 214 34 200 28" fill="none" stroke="#A9C6A6" stroke-width="8" stroke-linecap="round" stroke-linejoin="round" />
</svg>
<text x="46" y="3578" fill="#CBD5E1" font-size="12" font-weight="700">46</text>
<text x="74" y="3578" fill="#1E293B" font-size="16" font-weight="600">Vinu</text>
<text x="46" y="3598" fill="#94A3B8" font-size="11">dashed · seed · salvia</text>
<rect x="324" y="3290" width="272" height="320" rx="20" fill="#E9F5F4" stroke="#E8EDF2" stroke-width="1"/>
<svg x="324" y="3290" width="272" height="272" viewBox="0 0 400 400">
    <path d="M 118 168 L 200 306 L 282 168" fill="none" stroke="#3B8A88" stroke-width="46" stroke-linecap="round" stroke-linejoin="round" />
    <path d="M 180.5 127.9 A 34 34 0 1 1 214.4 130.8" fill="none" stroke="#3B8A88" stroke-width="10" stroke-linecap="round" stroke-linejoin="round" />
</svg>
<text x="344" y="3578" fill="#CBD5E1" font-size="12" font-weight="700">47</text>
<text x="372" y="3578" fill="#1E293B" font-size="16" font-weight="600">Vika</text>
<text x="344" y="3598" fill="#94A3B8" font-size="11">wide · enso · teal</text>
<rect x="622" y="3290" width="272" height="320" rx="20" fill="#F0EDF8" stroke="#E8EDF2" stroke-width="1"/>
<svg x="622" y="3290" width="272" height="272" viewBox="0 0 400 400">
    <path d="M 118 168 L 184 280" fill="none" stroke="#7268A0" stroke-width="24" stroke-linecap="round" stroke-linejoin="round" />
    <path d="M 282 168 L 216 280" fill="none" stroke="#B7ACD6" stroke-width="24" stroke-linecap="round" stroke-linejoin="round" />
    <circle cx="200" cy="100" r="54" fill="none" stroke="#B7ACD6" stroke-width="3" opacity="0.55"/>
    <circle cx="200" cy="100" r="40" fill="none" stroke="#B7ACD6" stroke-width="4"/>
    <circle cx="200" cy="100" r="20" fill="#7268A0"/>
</svg>
<text x="642" y="3578" fill="#CBD5E1" font-size="12" font-weight="700">48</text>
<text x="670" y="3578" fill="#1E293B" font-size="16" font-weight="600">Valta</text>
<text x="642" y="3598" fill="#94A3B8" font-size="11">split · breath · lavanda</text>
<rect x="920" y="3290" width="272" height="320" rx="20" fill="#EDF0FB" stroke="#E8EDF2" stroke-width="1"/>
<svg x="920" y="3290" width="272" height="272" viewBox="0 0 400 400">
    <path d="M 118 168 Q 148 286 200 306" fill="none" stroke="#4B5EA8" stroke-width="22" stroke-linecap="round" stroke-linejoin="round" />
    <path d="M 282 168 Q 252 286 200 306" fill="none" stroke="#A4B2E2" stroke-width="22" stroke-linecap="round" stroke-linejoin="round" />
    <path d="M 180.7 110.8 A 20 20 0 0 1 219.3 110.8" fill="none" stroke="#4B5EA8" stroke-width="6" stroke-linecap="round" stroke-linejoin="round" opacity="1"/>
    <path d="M 164.3 106.4 A 37 37 0 0 1 235.7 106.4" fill="none" stroke="#4B5EA8" stroke-width="6" stroke-linecap="round" stroke-linejoin="round" opacity="0.65"/>
    <path d="M 147.8 102.0 A 54 54 0 0 1 252.2 102.0" fill="none" stroke="#4B5EA8" stroke-width="6" stroke-linecap="round" stroke-linejoin="round" opacity="0.35"/>
</svg>
<text x="940" y="3578" fill="#CBD5E1" font-size="12" font-weight="700">49</text>
<text x="968" y="3578" fill="#1E293B" font-size="16" font-weight="600">Vento</text>
<text x="940" y="3598" fill="#94A3B8" font-size="11">wing · arcs · indigo</text>
<rect x="1218" y="3290" width="272" height="320" rx="20" fill="#F4EDF3" stroke="#E8EDF2" stroke-width="1"/>
<svg x="1218" y="3290" width="272" height="272" viewBox="0 0 400 400">
    <rect x="52" y="58" width="296" height="296" rx="76" fill="none" stroke="#C2A4BE" stroke-width="5"/>
    <path d="M 118 168 C 118 316 282 316 282 168" fill="none" stroke="#7A5878" stroke-width="26" stroke-linecap="round" stroke-linejoin="round" />
    <circle cx="200" cy="100" r="28" fill="#7A5878"/>
</svg>
<text x="1238" y="3578" fill="#CBD5E1" font-size="12" font-weight="700">50</text>
<text x="1266" y="3578" fill="#1E293B" font-size="16" font-weight="600">Vaon</text>
<text x="1238" y="3598" fill="#94A3B8" font-size="11">curve · dot · ciruela</text>
</svg>